<svg width="341" height="56" viewBox="0 0 341 56" fill="none" xmlns="http://www.w3.org/2000/svg">
    <mask id="hideMask">
        <path d="M254.585 29.9432C254.585 16.7834 264.234 6.11523 276.135 6.11523C288.037 6.11523 297.685 16.7834 297.685 29.9432V39.7547C297.685 46.2861 293.645 51.774 288.177 53.3298C286.178 53.8986 284.121 53.0705 282.49 51.7823L281.863 51.2864C278.505 48.6345 273.766 48.6345 270.408 51.2864L269.78 51.7823C268.149 53.0705 266.092 53.8986 264.093 53.3298C258.625 51.774 254.585 46.2861 254.585 39.7547V29.9432Z" fill="white"/>
        <ellipse cx="269.635" cy="16.1481" rx="5.01642" ry="5.01642" fill="black"/>
        <ellipse cx="282.176" cy="16.1481" rx="5.01642" ry="5.01642" fill="black"/>
        <path d="M264.095 28.2589C264.095 28.2589 262.675 21.8802 267.315 23.3106C267.315 23.3106 275.549 28.4942 285.877 23.3106C290.518 21.8813 289.097 28.2589 289.097 28.2589C286.445 37.7165 276.596 36.9474 276.596 36.9474C276.596 36.9474 266.747 37.7165 264.095 28.2589Z" fill="black"/>
    </mask>
<path d="M316.146 55.4435C312.934 55.4435 310.079 54.6533 307.581 53.0728C305.134 51.4924 303.197 49.2236 301.769 46.2666C300.392 43.3097 299.704 39.8174 299.704 35.7897C299.704 31.6602 300.392 28.1424 301.769 25.2364C303.197 22.3303 305.134 20.0871 307.581 18.5067C310.079 16.9262 312.934 16.136 316.146 16.136C318.95 16.136 321.474 16.7987 323.717 18.1243C325.96 19.4498 327.464 21.1577 328.229 23.248H327.388V6.88264C327.388 4.63941 327.974 2.9315 329.147 1.7589C330.319 0.586301 332.002 0 334.194 0C336.335 0 337.992 0.586301 339.165 1.7589C340.388 2.9315 341 4.63941 341 6.88264V48.4079C341 50.6511 340.414 52.3591 339.241 53.5317C338.12 54.7043 336.463 55.2906 334.27 55.2906C332.129 55.2906 330.472 54.7043 329.3 53.5317C328.127 52.3591 327.541 50.6511 327.541 48.4079V44.0489L328.382 47.7961C327.668 50.0903 326.164 51.9512 323.87 53.3787C321.627 54.7552 319.052 55.4435 316.146 55.4435ZM320.505 45.4254C321.882 45.4254 323.105 45.0941 324.176 44.4313C325.246 43.7175 326.062 42.6724 326.623 41.2958C327.235 39.8683 327.541 38.033 327.541 35.7897C327.541 32.3739 326.878 29.9267 325.552 28.4483C324.227 26.9188 322.544 26.154 320.505 26.154C319.129 26.154 317.905 26.4854 316.834 27.1482C315.764 27.811 314.923 28.8561 314.311 30.2836C313.699 31.6602 313.393 33.4955 313.393 35.7897C313.393 39.1546 314.056 41.6017 315.381 43.1312C316.707 44.6607 318.415 45.4254 320.505 45.4254Z" fill="#39CE95"/>
<path d="M254.585 29.9432C254.585 16.7834 264.234 6.11523 276.135 6.11523C288.037 6.11523 297.685 16.7834 297.685 29.9432V39.7547C297.685 46.2861 293.645 51.774 288.177 53.3298C286.178 53.8986 284.121 53.0705 282.49 51.7823L281.863 51.2864C278.505 48.6345 273.766 48.6345 270.408 51.2864L269.78 51.7823C268.149 53.0705 266.092 53.8986 264.093 53.3298C258.625 51.774 254.585 46.2861 254.585 39.7547V29.9432Z" fill="#39CE95" mask="url(#hideMask)"/>
<ellipse cx="279.667" cy="13.6399" rx="2.50821" ry="2.50821" fill="#39CE95"/>
<ellipse cx="272.143" cy="13.6399" rx="2.50821" ry="2.50821" fill="#39CE95"/>
<path d="M218.351 55.2906C216.21 55.2906 214.553 54.7043 213.38 53.5317C212.208 52.3591 211.621 50.6511 211.621 48.4079V6.88264C211.621 4.63941 212.208 2.9315 213.38 1.7589C214.553 0.586301 216.21 0 218.351 0C220.543 0 222.226 0.586301 223.398 1.7589C224.622 2.9315 225.234 4.63941 225.234 6.88264V23.5539H224.01C225.234 21.1578 226.967 19.3224 229.21 18.0478C231.505 16.7733 234.105 16.136 237.011 16.136C240.019 16.136 242.491 16.7223 244.429 17.8949C246.366 19.0165 247.819 20.8009 248.788 23.248C249.756 25.6442 250.241 28.6777 250.241 32.3484V48.4079C250.241 50.6511 249.654 52.3591 248.482 53.5317C247.309 54.7043 245.627 55.2906 243.434 55.2906C241.242 55.2906 239.56 54.7043 238.387 53.5317C237.215 52.3591 236.628 50.6511 236.628 48.4079V32.8837C236.628 30.5895 236.22 28.9581 235.405 27.9894C234.64 27.0207 233.493 26.5364 231.963 26.5364C229.924 26.5364 228.293 27.1992 227.069 28.5247C225.846 29.7993 225.234 31.5327 225.234 33.725V48.4079C225.234 52.9963 222.94 55.2906 218.351 55.2906Z" fill="#39CE95"/>
<path d="M188.672 55.4436C186.429 55.4436 184.135 55.2652 181.789 54.9083C179.495 54.6024 177.405 54.0161 175.518 53.1494C174.244 52.6396 173.326 51.9513 172.765 51.0846C172.256 50.2179 172.001 49.3002 172.001 48.3316C172.052 47.3629 172.332 46.4962 172.842 45.7315C173.403 44.9157 174.116 44.3549 174.983 44.049C175.901 43.6922 176.92 43.7177 178.042 44.1255C180.183 44.8903 182.095 45.4511 183.778 45.8079C185.511 46.1138 187.168 46.2668 188.748 46.2668C190.635 46.2668 191.986 46.0119 192.802 45.502C193.617 44.9412 194.025 44.2275 194.025 43.3608C194.025 42.596 193.745 42.0097 193.184 41.6019C192.674 41.194 191.935 40.9136 190.966 40.7607L182.478 39.3841C179.317 38.8233 176.87 37.6762 175.136 35.9428C173.403 34.1584 172.536 31.8387 172.536 28.9837C172.536 26.3326 173.275 24.0639 174.754 22.1775C176.283 20.2402 178.348 18.7617 180.948 17.7421C183.599 16.6714 186.633 16.1361 190.048 16.1361C192.343 16.1361 194.433 16.3145 196.319 16.6714C198.206 16.9773 200.041 17.5636 201.825 18.4303C202.947 18.8892 203.737 19.5519 204.196 20.4186C204.655 21.2853 204.833 22.203 204.731 23.1717C204.629 24.0894 204.298 24.9561 203.737 25.7718C203.227 26.5365 202.514 27.0719 201.596 27.3778C200.678 27.6327 199.608 27.5562 198.384 27.1483C196.702 26.4856 195.198 26.0012 193.872 25.6953C192.598 25.3894 191.4 25.2365 190.278 25.2365C188.188 25.2365 186.709 25.5169 185.842 26.0777C184.976 26.6385 184.542 27.3523 184.542 28.219C184.542 28.8817 184.772 29.4425 185.231 29.9014C185.689 30.3093 186.403 30.5897 187.372 30.7426L195.861 32.1956C199.123 32.7054 201.622 33.827 203.355 35.5605C205.139 37.2429 206.032 39.5371 206.032 42.4431C206.032 46.5727 204.451 49.7846 201.29 52.0788C198.129 54.322 193.923 55.4436 188.672 55.4436Z" fill="#39CE95"/>
<path d="M151.759 55.4436C147.171 55.4436 143.194 54.6534 139.829 53.073C136.515 51.4415 133.966 49.1473 132.182 46.1903C130.397 43.2333 129.505 39.741 129.505 35.7134C129.505 31.8387 130.346 28.4484 132.029 25.5424C133.762 22.5854 136.107 20.2912 139.064 18.6597C142.072 16.9773 145.488 16.1361 149.312 16.1361C152.116 16.1361 154.665 16.5949 156.959 17.5126C159.253 18.3793 161.216 19.6794 162.848 21.4128C164.479 23.0952 165.703 25.1345 166.518 27.5307C167.385 29.9269 167.818 32.6035 167.818 35.5605C167.818 36.5801 167.538 37.3448 166.977 37.8547C166.416 38.3135 165.524 38.5429 164.301 38.5429H140.9V32.1191H157.877L156.653 33.1133C156.653 31.2269 156.398 29.6975 155.889 28.5249C155.379 27.3523 154.614 26.4601 153.594 25.8483C152.626 25.2365 151.402 24.9306 149.924 24.9306C148.343 24.9306 146.967 25.313 145.794 26.0777C144.672 26.7915 143.806 27.8621 143.194 29.2896C142.582 30.7171 142.276 32.5015 142.276 34.6428V35.331C142.276 38.9508 143.066 41.5509 144.647 43.1314C146.278 44.6608 148.777 45.4256 152.141 45.4256C153.263 45.4256 154.538 45.2981 155.965 45.0432C157.444 44.7373 158.846 44.3294 160.171 43.8196C161.497 43.3098 162.644 43.2333 163.612 43.5902C164.581 43.8961 165.32 44.4569 165.83 45.2726C166.391 46.0374 166.697 46.9296 166.748 47.9492C166.799 48.9179 166.569 49.8865 166.06 50.8552C165.55 51.7729 164.709 52.4867 163.536 52.9965C161.752 53.8122 159.84 54.424 157.8 54.8319C155.812 55.2397 153.798 55.4436 151.759 55.4436Z" fill="white"/>
<path d="M108.619 55.4435C105.713 55.4435 103.113 54.7552 100.818 53.3787C98.5753 51.9512 97.0968 50.0903 96.383 47.7961L97.2242 44.6607V48.4079C97.2242 50.6511 96.6379 52.3591 95.4653 53.5317C94.3437 54.7043 92.7123 55.2906 90.571 55.2906C88.3788 55.2906 86.6963 54.7043 85.5237 53.5317C84.4021 52.3591 83.8413 50.6511 83.8413 48.4079V6.88264C83.8413 4.63941 84.4276 2.9315 85.6002 1.7589C86.7728 0.586301 88.4297 0 90.571 0C92.7632 0 94.4457 0.586301 95.6183 1.7589C96.8419 2.9315 97.4536 4.63941 97.4536 6.88264V23.248H96.536C97.3007 21.1577 98.8047 19.4498 101.048 18.1243C103.291 16.7987 105.815 16.136 108.619 16.136C111.882 16.136 114.737 16.9262 117.184 18.5067C119.682 20.0871 121.619 22.3303 122.996 25.2364C124.372 28.1424 125.061 31.6602 125.061 35.7897C125.061 39.8174 124.372 43.3097 122.996 46.2666C121.619 49.2236 119.682 51.4924 117.184 53.0728C114.737 54.6533 111.882 55.4435 108.619 55.4435ZM104.336 45.4254C105.713 45.4254 106.911 45.0941 107.931 44.4313C109.001 43.7175 109.842 42.6724 110.454 41.2958C111.066 39.8683 111.372 38.033 111.372 35.7897C111.372 32.3739 110.709 29.9267 109.384 28.4483C108.058 26.9188 106.376 26.154 104.336 26.154C102.96 26.154 101.736 26.4854 100.666 27.1482C99.5949 27.811 98.7537 28.8561 98.1419 30.2836C97.5301 31.6602 97.2242 33.4955 97.2242 35.7897C97.2242 39.1546 97.887 41.6017 99.2125 43.1312C100.538 44.6607 102.246 45.4254 104.336 45.4254Z" fill="white"/>
<path d="M51.9835 55.4435C48.7206 55.4435 46.044 54.8572 43.9537 53.6846C41.8634 52.4611 40.283 50.6512 39.2123 48.255C38.1927 45.8588 37.6829 42.8254 37.6829 39.1546V23.0951C37.6829 20.8519 38.2692 19.1695 39.4418 18.0478C40.6144 16.8752 42.2968 16.2889 44.489 16.2889C46.6813 16.2889 48.3637 16.8752 49.5363 18.0478C50.7089 19.1695 51.2952 20.8519 51.2952 23.0951V39.537C51.2952 41.3723 51.6776 42.7489 52.4423 43.6666C53.207 44.5842 54.4051 45.0431 56.0366 45.0431C57.8719 45.0431 59.3759 44.3803 60.5485 43.0548C61.7211 41.7292 62.3074 39.9703 62.3074 37.7781V23.0951C62.3074 20.8519 62.8937 19.1695 64.0663 18.0478C65.2389 16.8752 66.9213 16.2889 69.1136 16.2889C71.3058 16.2889 72.9883 16.8752 74.1609 18.0478C75.3335 19.1695 75.9198 20.8519 75.9198 23.0951V48.4079C75.9198 52.9964 73.7275 55.2906 69.343 55.2906C67.2017 55.2906 65.5448 54.7043 64.3722 53.5317C63.1996 52.3591 62.6133 50.6512 62.6133 48.4079V43.9725L63.8369 47.7197C62.7153 50.2178 61.1348 52.1297 59.0955 53.4552C57.1072 54.7808 54.7365 55.4435 51.9835 55.4435Z" fill="white"/>
<path d="M25.0814 55.4436C21.2577 55.4436 18.0968 54.8573 15.5987 53.6847C13.1515 52.5121 11.3161 50.7532 10.0926 48.408C8.86897 46.0118 8.25718 43.0294 8.25718 39.4606V26.9954H5.65707C4.02563 26.9954 2.75107 26.562 1.83338 25.6953C0.966677 24.8286 0.533325 23.5795 0.533325 21.9481C0.533325 20.3166 0.966677 19.0931 1.83338 18.2773C2.75107 17.4106 4.02563 16.9773 5.65707 16.9773H8.25718V12.2359C8.25718 9.99268 8.84348 8.28477 10.0161 7.11217C11.1887 5.93957 12.8711 5.35327 15.0633 5.35327C17.2556 5.35327 18.938 5.93957 20.1106 7.11217C21.2832 8.28477 21.8695 9.99268 21.8695 12.2359V16.9773H28.1404C29.8228 16.9773 31.0974 17.4106 31.9641 18.2773C32.8817 19.0931 33.3406 20.3166 33.3406 21.9481C33.3406 23.5795 32.8817 24.8286 31.9641 25.6953C31.0974 26.562 29.8228 26.9954 28.1404 26.9954H21.8695V39.0017C21.8695 40.8881 22.3029 42.2901 23.1696 43.2078C24.0873 44.0745 25.5148 44.5079 27.4521 44.5079C28.1659 44.5079 28.8541 44.4314 29.5169 44.2784C30.1797 44.1255 30.7915 44.049 31.3523 44.049C32.168 43.998 32.8308 44.2529 33.3406 44.8138C33.8504 45.3236 34.1053 46.5217 34.1053 48.408C34.1053 49.9375 33.8759 51.2375 33.4171 52.3082C32.9582 53.3278 32.1425 54.0671 30.9699 54.5259C30.2561 54.7808 29.2875 54.9848 28.0639 55.1377C26.8403 55.3416 25.8462 55.4436 25.0814 55.4436Z" fill="white"/>
</svg>
